<svg width="35" height="35" viewBox="0 0 35 35" fill="none" xmlns="http://www.w3.org/2000/svg">
<path d="M8.75 8.75C8.75 7.58968 9.21094 6.47688 10.0314 5.65641C10.8519 4.83594 11.9647 4.375 13.125 4.375H17.5V13.125H13.125C11.9647 13.125 10.8519 12.6641 10.0314 11.8436C9.21094 11.0231 8.75 9.91032 8.75 8.75Z" stroke="#051326" stroke-width="1.5" stroke-linecap="round" stroke-linejoin="round"/>
<path d="M17.5 4.375H21.875C22.4496 4.375 23.0185 4.48817 23.5493 4.70802C24.08 4.9279 24.5623 5.25015 24.9686 5.65641C25.3749 6.06267 25.6971 6.54496 25.9169 7.07576C26.1368 7.60656 26.25 8.17546 26.25 8.75C26.25 9.32454 26.1368 9.89344 25.9169 10.4242C25.6971 10.955 25.3749 11.4373 24.9686 11.8436C24.5623 12.2499 24.08 12.5721 23.5493 12.792C23.0185 13.0118 22.4496 13.125 21.875 13.125H17.5V4.375Z" stroke="#051326" stroke-width="1.5" stroke-linecap="round" stroke-linejoin="round"/>
<path d="M17.5 17.5C17.5 16.9254 17.6132 16.3565 17.8331 15.8257C18.0529 15.295 18.3751 14.8127 18.7814 14.4064C19.1877 14.0001 19.67 13.6779 20.2007 13.458C20.7315 13.2382 21.3004 13.125 21.875 13.125C22.4496 13.125 23.0185 13.2382 23.5493 13.458C24.08 13.6779 24.5623 14.0001 24.9686 14.4064C25.3749 14.8127 25.6971 15.295 25.9169 15.8257C26.1368 16.3565 26.25 16.9254 26.25 17.5C26.25 18.0746 26.1368 18.6435 25.9169 19.1743C25.6971 19.705 25.3749 20.1873 24.9686 20.5936C24.5623 20.9999 24.08 21.3221 23.5493 21.5419C23.0185 21.7618 22.4496 21.875 21.875 21.875C21.3004 21.875 20.7315 21.7618 20.2007 21.5419C19.67 21.3221 19.1877 20.9999 18.7814 20.5936C18.3751 20.1873 18.0529 19.705 17.8331 19.1743C17.6132 18.6435 17.5 18.0746 17.5 17.5Z" stroke="#051326" stroke-width="1.5" stroke-linecap="round" stroke-linejoin="round"/>
<path d="M8.75 26.25C8.75 25.0898 9.21094 23.9769 10.0314 23.1564C10.8519 22.336 11.9647 21.875 13.125 21.875H17.5V26.25C17.5 27.4103 17.039 28.5231 16.2186 29.3436C15.3981 30.164 14.2853 30.625 13.125 30.625C11.9647 30.625 10.8519 30.164 10.0314 29.3436C9.21094 28.5231 8.75 27.4103 8.75 26.25Z" stroke="#051326" stroke-width="1.5" stroke-linecap="round" stroke-linejoin="round"/>
<path d="M8.75 17.5C8.75 16.3398 9.21094 15.2269 10.0314 14.4064C10.8519 13.5859 11.9647 13.125 13.125 13.125H17.5V21.875H13.125C11.9647 21.875 10.8519 21.414 10.0314 20.5936C9.21094 19.7731 8.75 18.6603 8.75 17.5Z" stroke="#051326" stroke-width="1.5" stroke-linecap="round" stroke-linejoin="round"/>
</svg>
