<svg width="35" height="35" viewBox="0 0 35 35" fill="none" xmlns="http://www.w3.org/2000/svg">
<path d="M10.0974 6.04951H11.3482V7.41943H12.7163V3.32819H11.3482V4.6802H10.0974V3.32819H8.72998V7.41943H10.0974V6.04951Z" fill="#051326"/>
<path d="M14.5138 7.41943H15.8812V4.68576H17.0845V3.32819H13.3105V4.68576H14.5138V7.41943Z" fill="#051326"/>
<path d="M19.0218 5.39264L19.9639 6.84652H19.9867L20.9269 5.39264V7.41943H22.2895V3.32819H20.8634L19.9867 4.76787L19.1101 3.32819H17.6846V7.41943H19.0218V5.39264Z" fill="#051326"/>
<path d="M26.2603 6.06803H24.3372V3.32819H22.9697V7.41943H26.2603V6.06803Z" fill="#051326"/>
<path d="M6.75928 9.21472L8.71507 31.1508L17.4946 33.5875L26.2808 31.152L28.2403 9.21472H6.75928ZM23.9972 16.3884H17.4995H13.7015L13.9472 19.1437H17.4995H23.7527L23.015 27.4059L17.4995 28.9338L17.4958 28.9351L11.984 27.4059L11.5994 23.0843H14.2997L14.4997 25.326L17.4964 26.1359L17.5001 26.1347L20.4999 25.3247L20.8122 21.8354H17.5001H11.4876L10.761 13.6992H17.4995H24.2374L23.9972 16.3884Z" fill="#051326"/>
</svg>
