<svg width="35" height="35" viewBox="0 0 35 35" fill="none" xmlns="http://www.w3.org/2000/svg">
<path d="M28.7641 29.5633L28.7977 29.4977C28.8283 29.4432 28.8542 29.3861 28.8749 29.3271L28.8779 29.3198C28.9825 29.037 29.0097 28.7314 28.9566 28.4346L28.9581 28.4448C28.9015 28.1232 28.7853 27.8151 28.6154 27.5362L28.6227 27.5479L20.8687 13.9081L19.6845 11.8373L18.5077 13.9081L10.7581 27.5479C10.6087 27.8221 10.508 28.1201 10.4606 28.4287L10.4591 28.4448C10.3962 28.7953 10.4367 29.1567 10.5758 29.4846L10.5714 29.4729C10.5922 29.5241 10.6166 29.5738 10.6443 29.6216L10.6414 29.6158C10.8747 30.0169 11.3706 30.4937 12.4643 30.4937H26.8989C27.1279 30.4937 28.2479 30.4471 28.7656 29.5648L28.7641 29.5633ZM19.6831 15.9775L26.7691 28.4433H12.5999L19.6831 15.9775ZM34.6295 27.5479L24.3979 9.52289C24.2929 9.33331 23.7022 8.37518 22.6741 8.37518C22.2118 8.37518 21.5483 8.57206 21.0087 9.51998L19.686 11.8387L20.8629 13.9096L22.6858 10.6837L32.8081 28.4462H28.9581C29.0077 28.7441 28.9785 29.0498 28.8735 29.3329L28.8779 29.3212C28.8557 29.3848 28.8279 29.4463 28.7947 29.505L28.7977 29.4991L28.7656 29.5648C28.2479 30.4471 27.1279 30.4937 26.9091 30.4937H32.9306C33.1522 30.4937 34.2679 30.4471 34.7856 29.5648C35.0145 29.1637 35.1793 28.49 34.6295 27.5494V27.5479ZM10.6516 29.6143C10.6274 29.5708 10.6055 29.526 10.586 29.4802L10.5831 29.4714C10.4399 29.1452 10.3972 28.7837 10.4606 28.4331L10.4591 28.4448L2.1889 28.4433L14.4812 6.81331L18.5164 13.9066L19.686 11.8358L16.1685 5.63935C16.0708 5.46143 15.4758 4.50623 14.452 4.50623C13.9897 4.50623 13.3262 4.70602 12.7866 5.65393L0.335361 27.5464C0.230361 27.736 -0.28443 28.7306 0.225986 29.6129C0.45932 30.0139 0.955153 30.4908 2.0489 30.4908H12.4774C11.391 30.4908 10.8879 30.0212 10.6545 29.6129L10.6516 29.6143Z" fill="#051326"/>
</svg>
