<svg width="25" height="25" viewBox="0 0 25 25" fill="none" xmlns="http://www.w3.org/2000/svg">
<path d="M22.6791 0.133362H2.3208C1.11268 0.133362 0.133301 1.11274 0.133301 2.32086V22.6792C0.133301 23.8873 1.11268 24.8667 2.3208 24.8667H22.6791C23.8873 24.8667 24.8666 23.8873 24.8666 22.6792V2.32086C24.8666 1.11274 23.8873 0.133362 22.6791 0.133362Z" fill="#231F20"/>
<path d="M3.58203 6.31671H8.47474C10.9831 6.31671 12.6893 7.724 12.6893 9.999C12.6893 12.5511 10.7862 13.7761 8.40182 13.7761H5.87161V18.4719H3.58203V6.31671ZM5.87161 11.9386H8.12474C9.49557 11.9386 10.3487 11.348 10.3487 10.05C10.3487 8.75213 9.40078 8.15421 8.1612 8.15421H5.87161V11.9386Z" fill="white"/>
<path d="M15.8541 15.8032C15.9605 16.2068 16.2099 16.5581 16.556 16.7915C16.9021 17.0249 17.3213 17.1246 17.7354 17.0719C18.7927 17.0719 19.1937 16.6636 19.1937 16.0219C19.1937 15.3802 18.8 15.074 17.3635 14.7167C14.5416 14.024 14.0385 13.1563 14.0385 11.8948C14.0385 10.6334 14.9791 9.22607 17.5677 9.22607C20.1562 9.22607 21.1041 10.6844 21.2135 11.9094H19.1062C19.0041 11.4938 18.7125 10.8011 17.4656 10.8011C16.4885 10.8011 16.1823 11.2459 16.1823 11.7125C16.1823 12.1792 16.4958 12.5 18.0271 12.8573C20.9437 13.5427 21.4177 14.5344 21.4177 15.8688C21.4177 17.3927 20.2364 18.6834 17.6552 18.6834C15.0739 18.6834 13.9073 17.4073 13.6958 15.8032H15.8541Z" fill="white"/>
</svg>
