<svg width="35" height="35" viewBox="0 0 35 35" fill="none" xmlns="http://www.w3.org/2000/svg">
<path d="M10.9399 0H14.6997V1.57226H12.5122V3.14453H14.6997V4.7168H10.9399V0Z" fill="#051326"/>
<path d="M15.4517 0H19.2115V1.36719H17.024V1.64062H19.2115V4.78516H15.4517V3.34962H17.6392V3.07618H15.4517V0Z" fill="#051326"/>
<path d="M19.9634 0H23.7231V1.36719H21.5356V1.64062H23.7231V4.78516H19.9634V3.34962H22.1509V3.07618H19.9634V0Z" fill="#051326"/>
<path fill-rule="evenodd" clip-rule="evenodd" d="M17.4872 35L7.36078 32.1888L4.375 6.8783H30.625L27.6414 32.1848L17.4872 35ZM10.2774 18.3352L10.5556 21.4394H21.314L20.9536 25.4653L17.4914 26.3998L17.4883 26.4008L14.0311 25.4673L13.8101 22.9915H10.694L11.1289 27.8657L17.4876 29.6308L23.8553 27.8655L24.6314 19.1688L24.7072 18.3352L25.2677 12.0521H9.71842L10.0006 15.1563H21.8657L21.5832 18.3352H10.2774Z" fill="#051326"/>
</svg>
