<svg width="35" height="35" viewBox="0 0 35 35" fill="none" xmlns="http://www.w3.org/2000/svg">
<path d="M31.4998 2.79999H3.4998C3.1127 2.79999 2.7998 3.11359 2.7998 3.49999V31.5C2.7998 31.8864 3.1127 32.2 3.4998 32.2H31.4998C31.8869 32.2 32.1998 31.8864 32.1998 31.5V3.49999C32.1998 3.11359 31.8869 2.79999 31.4998 2.79999ZM20.2998 18.5115H16.7998V29.4H13.9998V18.5115H10.4998V16.1H20.2998V18.5115ZM21.0845 28.7784V25.8678C21.0845 25.8678 22.6742 27.0662 24.5817 27.0662C26.4892 27.0662 26.4157 25.8188 26.4157 25.648C26.4157 23.8378 21.011 23.8378 21.011 19.8275C21.011 14.3738 28.886 16.5256 28.886 16.5256L28.788 19.1184C28.788 19.1184 27.4671 18.2378 25.9754 18.2378C24.4837 18.2378 23.9454 18.9469 23.9454 19.705C23.9454 21.6615 29.3991 21.4662 29.3991 25.4037C29.3998 31.4685 21.0845 28.7784 21.0845 28.7784Z" fill="black"/>
</svg>
